<svg width="56" height="56" viewBox="0 0 56 56" fill="none" xmlns="http://www.w3.org/2000/svg">
<path d="M0 28C0 12.536 12.536 0 28 0C43.464 0 56 12.536 56 28C56 43.464 43.464 56 28 56C12.536 56 0 43.464 0 28Z" fill="white" fill-opacity="0.2"/>
<path d="M40.8819 16.7903C40.493 16.3998 39.9651 16.1795 39.4139 16.1778H38.2472C35.8031 16.1694 33.4072 15.4973 31.3153 14.2334L28.5347 12.5903C28.3732 12.4935 28.1883 12.4424 28 12.4424C27.8117 12.4424 27.6268 12.4935 27.4653 12.5903L24.6944 14.2528C22.6025 15.5168 20.2066 16.1888 17.7625 16.1973H16.5958C16.3223 16.196 16.0511 16.2489 15.7981 16.353C15.5451 16.4571 15.3152 16.6103 15.1218 16.8038C14.9283 16.9972 14.7751 17.2271 14.671 17.4801C14.5669 17.7331 14.514 18.0042 14.5153 18.2778V26.1723C14.5294 29.5208 15.4935 32.7965 17.2953 35.6189C19.0972 38.4414 21.6629 40.6945 24.6944 42.1167L27.6111 43.4584C27.7482 43.5219 27.8975 43.5549 28.0486 43.5549C28.1997 43.5549 28.349 43.5219 28.4861 43.4584L31.4028 42.1167C34.4206 40.6785 36.9692 38.4148 38.7535 35.5878C40.5379 32.7608 41.4848 29.4861 41.4847 26.1431V18.2778C41.4883 18.0023 41.4368 17.7287 41.3333 17.4733C41.2298 17.2179 41.0763 16.9857 40.8819 16.7903ZM17.7528 18.2778C20.5775 18.2705 23.347 17.4941 25.7639 16.032L28 14.6903L30.2458 16.032C32.6599 17.4924 35.4258 18.2687 38.2472 18.2778H39.4139V21.3889H38.2472C35.8031 21.3805 33.4072 20.7084 31.3153 19.4445L28.5347 17.782C28.3732 17.6852 28.1883 17.634 28 17.634C27.8117 17.634 27.6268 17.6852 27.4653 17.782L24.6944 19.4445C22.6025 20.7084 20.2066 21.3805 17.7625 21.3889H16.5958V18.2778H17.7528ZM30.3917 40.2695L28 41.3778L25.5694 40.2403C22.8918 38.9821 20.6267 36.9891 19.038 34.4933C17.4493 31.9975 16.6023 29.1017 16.5958 26.1431V23.4403H17.7625C20.584 23.4312 23.3498 22.6549 25.7639 21.1945L28 19.8723L30.2458 21.1945C32.6629 22.6447 35.4285 23.4109 38.2472 23.4112H39.4139V26.1139C39.412 29.0785 38.5663 31.9813 36.9755 34.4828C35.3846 36.9844 33.1145 38.9814 30.4306 40.2403L30.3917 40.2695Z" fill="white"/>
<g clip-path="url(#clip0_79_3517)">
<path d="M35.3476 30.1063H31.3392C31.2517 30.1063 31.1666 30.1354 31.0975 30.1891C31.0284 30.2428 30.9792 30.3181 30.9576 30.4029L30.1136 33.7192L29.0568 26.2449C29.0434 26.1587 29.0018 26.0794 28.9386 26.0193C28.8754 25.9592 28.7941 25.9217 28.7074 25.9127C28.6207 25.9036 28.5334 25.9235 28.4591 25.9692C28.3849 26.0149 28.3278 26.0839 28.2969 26.1655L26.0611 32.3148L25.04 28.3029C25.02 28.2292 24.9792 28.1628 24.9225 28.1117C24.8657 28.0606 24.7954 28.027 24.72 28.015C24.6446 28.0029 24.5673 28.0129 24.4974 28.0437C24.4276 28.0745 24.3681 28.1249 24.3262 28.1887L23.1061 30.1063H20.65C20.5466 30.1078 20.448 30.15 20.3754 30.2237C20.3028 30.2974 20.2621 30.3966 20.2621 30.5C20.2621 30.6035 20.3028 30.7027 20.3754 30.7764C20.448 30.8501 20.5466 30.8922 20.65 30.8938H23.3223C23.3885 30.8938 23.4537 30.877 23.5118 30.8452C23.5699 30.8133 23.6189 30.7673 23.6545 30.7114L24.5015 29.38L25.613 33.7472C25.635 33.8277 25.6818 33.8992 25.7469 33.9515C25.812 34.0039 25.8919 34.0342 25.9753 34.0384C26.0586 34.0425 26.1412 34.0202 26.2111 33.9747C26.281 33.9291 26.3348 33.8625 26.3646 33.7846L28.4978 27.9172L29.6131 35.8052C29.6258 35.8954 29.6696 35.9785 29.7368 36.0402C29.804 36.1018 29.8905 36.1382 29.9815 36.1432C30.0726 36.1481 30.1625 36.1213 30.2361 36.0674C30.3096 36.0134 30.362 35.9356 30.3846 35.8472L31.6453 30.8938H35.3476C35.4509 30.8922 35.5495 30.85 35.6221 30.7763C35.6946 30.7027 35.7353 30.6034 35.7353 30.5C35.7353 30.3966 35.6946 30.2974 35.6221 30.2237C35.5495 30.1501 35.4509 30.1079 35.3476 30.1063Z" fill="white" stroke="white" stroke-miterlimit="10"/>
</g>
<defs>
<clipPath id="clip0_79_3517">
<rect width="16.8" height="16.8" fill="white" transform="translate(19.6 22.1)"/>
</clipPath>
</defs>
</svg>
